<?xml version="1.0" encoding="UTF-8"?>
<svg xmlns="http://www.w3.org/2000/svg" width="250" height="250" viewBox="0 0 250 250" fill="none" version="1.2">
  <path d="M199.973 166.679C199.973 157.476 192.506 150.018 183.311 150.018C192.514 150.018 199.973 142.551 199.973 133.357C199.973 142.56 207.44 150.018 216.634 150.018C207.431 150.018 199.973 157.485 199.973 166.679ZM199.973 116.688C199.973 107.486 192.506 100.028 183.311 100.028C192.514 100.028 199.973 92.561 199.973 83.3669C199.973 92.5693 207.44 100.028 216.634 100.028C207.431 100.028 199.973 107.494 199.973 116.688ZM49.9849 166.679C49.9849 157.476 42.5179 150.018 33.3233 150.018C42.5262 150.018 49.9849 142.551 49.9849 133.357C49.9849 142.56 57.4519 150.018 66.6465 150.018C57.4436 150.018 49.9849 157.485 49.9849 166.679ZM49.9849 116.688C49.9849 107.486 42.5179 100.028 33.3233 100.028C42.5262 100.028 49.9849 92.561 49.9849 83.3669C49.9849 92.5693 57.4519 100.028 66.6465 100.028C57.4436 100.028 49.9849 107.494 49.9849 116.688ZM149.98 66.6979C149.98 57.4955 142.513 50.0372 133.318 50.0372C142.521 50.0372 149.98 42.5706 149.98 33.3765C149.98 42.579 157.447 50.0372 166.641 50.0372C157.438 50.0372 149.98 57.5038 149.98 66.6979ZM99.9864 66.6979C99.9864 57.4955 92.5194 50.0372 83.3248 50.0372C92.5277 50.0372 99.9864 42.5706 99.9864 33.3765C99.9864 42.579 107.453 50.0372 116.648 50.0372C107.445 50.0372 99.9864 57.5038 99.9864 66.6979ZM149.98 216.677C149.98 207.475 142.513 200.017 133.318 200.017C142.521 200.017 149.98 192.55 149.98 183.356C149.98 192.558 157.447 200.017 166.641 200.017C157.438 200.017 149.98 207.483 149.98 216.677ZM99.9864 216.677C99.9864 207.475 92.5194 200.017 83.3248 200.017C92.5277 200.017 99.9864 192.55 99.9864 183.356C99.9864 192.558 107.453 200.017 116.648 200.017C107.445 200.017 99.9864 207.483 99.9864 216.677ZM133.31 249.999H116.648C107.445 249.999 99.9864 242.532 99.9864 233.338V216.677C99.9864 207.475 107.453 200.017 116.648 200.017H133.31C142.513 200.017 149.971 207.483 149.971 216.677V233.338C149.971 242.54 142.504 249.999 133.31 249.999ZM233.304 249.999H216.643C207.44 249.999 199.981 242.532 199.981 233.338V216.677C199.981 207.475 207.448 200.017 216.643 200.017H233.304C242.507 200.017 249.966 207.483 249.966 216.677V233.338C249.966 242.54 242.499 249.999 233.304 249.999ZM183.311 200.008H166.65C157.447 200.008 149.988 192.542 149.988 183.348V166.687C149.988 157.485 157.455 150.026 166.65 150.026H183.311C192.514 150.026 199.973 157.493 199.973 166.687V183.348C199.973 192.55 192.506 200.008 183.311 200.008ZM233.304 150.018H216.643C207.44 150.018 199.981 142.551 199.981 133.357V116.697C199.981 107.494 207.448 100.036 216.643 100.036H233.304C242.507 100.036 249.966 107.502 249.966 116.697V133.357C249.966 142.56 242.499 150.018 233.304 150.018ZM133.31 50.0289H116.648C107.445 50.0289 99.9864 42.5624 99.9864 33.3682V16.7076C99.9864 7.50515 107.453 0.046875 116.648 0.046875L133.31 0.046875C142.513 0.046875 149.971 7.51345 149.971 16.7076V33.3682C149.971 42.5707 142.504 50.0289 133.31 50.0289ZM33.3233 50.0289H16.6616C7.45869 50.0289 0 42.5624 0 33.3682L0 16.7076C0 7.50515 7.467 0.046875 16.6616 0.046875L33.3233 0.046875C42.5262 0.046875 49.9849 7.51345 49.9849 16.7076V33.3682C49.9849 42.5707 42.5179 50.0289 33.3233 50.0289ZM233.304 50.0289H216.643C207.44 50.0289 199.981 42.5624 199.981 33.3682V16.7076C199.981 7.50515 207.448 0.046875 216.643 0.046875L233.304 0.046875C242.507 0.046875 249.966 7.51345 249.966 16.7076V33.3682C249.966 42.5707 242.499 50.0289 233.304 50.0289ZM183.311 100.028H166.65C157.447 100.028 149.988 92.561 149.988 83.3669V66.7062C149.988 57.5038 157.455 50.0455 166.65 50.0455H183.311C192.514 50.0455 199.973 57.5121 199.973 66.7062V83.3669C199.973 92.5693 192.506 100.028 183.311 100.028ZM83.3165 200.008H66.6548C57.4519 200.008 49.9932 192.542 49.9932 183.348V166.687C49.9932 157.485 57.4602 150.026 66.6548 150.026H83.3165C92.5194 150.026 99.9781 157.493 99.9781 166.687V183.348C99.9781 192.55 92.5111 200.008 83.3165 200.008ZM33.3233 249.999H16.6616C7.45869 249.999 0 242.532 0 233.338L0 216.677C0 207.475 7.467 200.017 16.6616 200.017H33.3233C42.5262 200.017 49.9849 207.483 49.9849 216.677V233.338C49.9849 242.54 42.5179 249.999 33.3233 249.999ZM83.3165 100.028H66.6548C57.4519 100.028 49.9932 92.561 49.9932 83.3669V66.7062C49.9932 57.5038 57.4602 50.0455 66.6548 50.0455H83.3165C92.5194 50.0455 99.9781 57.5121 99.9781 66.7062V83.3669C99.9781 92.5693 92.5111 100.028 83.3165 100.028ZM33.3233 150.018H16.6616C7.45869 150.018 0 142.551 0 133.357L0 116.697C0 107.494 7.467 100.036 16.6616 100.036H33.3233C42.5262 100.036 49.9849 107.502 49.9849 116.697V133.357C49.9849 142.56 42.5179 150.018 33.3233 150.018Z" fill="#121212"></path>
  <path d="M248.513 134.551C248.513 128.58 249.261 121.869 249.261 115.897C249.037 114.851 249.875 113.929 249.626 112.891C247.799 105.208 241.304 100.009 233.363 99.9424C227.815 99.8926 222.267 99.9424 216.727 99.9341C207.573 99.9258 200.206 92.6337 200.148 83.4894C200.107 78.0659 200.148 72.6425 200.14 67.2107C200.123 57.2442 192.914 50.0268 182.971 50.0019C177.182 49.9853 171.385 50.1431 165.612 49.8358C156.866 49.3707 150.23 42.2529 150.113 33.4658C150.039 27.8596 150.105 22.2534 150.097 16.639C150.088 7.46978 142.821 0.0945602 133.684 0.0281168C127.953 -0.0134103 122.222 -0.0051049 116.499 0.0281168C107.388 0.0779494 100.079 7.4781 100.062 16.6307C100.054 21.9379 100.079 27.2367 100.062 32.5439C100.029 42.8094 93.0352 49.8856 82.7608 50.0019C77.4616 50.06 72.1541 50.0019 66.855 50.0185C57.4527 50.0434 50.1767 57.2608 50.0937 66.6626C50.0355 72.7588 50.3013 78.8716 49.9026 84.9345C49.3461 93.4891 42.0453 99.9175 33.4653 99.9341C28.0415 99.9341 22.6178 99.9175 17.194 99.9341C7.36814 99.9673 0.158612 107.185 0.108776 117.043C0.0838585 122.35 0.0838585 127.649 0.108776 132.956C0.158612 142.823 7.37646 150.024 17.2106 150.041C22.5098 150.041 27.8172 150.041 33.1164 150.041C42.718 150.049 50.0106 157.275 50.0771 166.893C50.1186 172.133 50.0771 177.374 50.0771 182.615C50.0771 192.814 57.1786 199.99 67.4032 200.073C72.7023 200.122 78.0098 200.073 83.3089 200.081C92.4953 200.081 99.7131 206.958 99.9955 216.185C100.17 221.791 100.054 227.398 100.054 233.004C100.062 242.646 107.288 249.93 116.881 249.938C122.43 249.938 127.978 249.947 133.518 249.938C142.763 249.914 150.08 242.572 150.097 233.319C150.097 227.954 150.088 222.589 150.097 217.223C150.122 207.215 157.281 200.073 167.273 200.073C172.332 200.073 177.39 200.081 182.448 200.073C192.988 200.039 200.131 192.888 200.14 182.382C200.14 177.2 200.131 172.017 200.14 166.843C200.165 157.35 207.449 150.057 216.926 150.041C222.292 150.032 227.657 150.041 233.014 150.041C242.118 150.032 249.036 143.795 250 134.742C250.025 134.468 248.414 134.825 248.513 134.559V134.551ZM199.857 134.493C199.326 143.479 192.116 149.916 183.088 149.966C177.664 149.991 172.24 149.966 166.816 149.966C157.406 149.991 150.155 157.142 150.039 166.585C149.972 171.826 150.022 177.067 150.022 182.307C150.022 192.432 143.552 199.45 133.443 199.882C127.488 200.131 121.499 200.064 115.536 199.782C106.939 199.375 100.236 192.116 100.162 183.512C100.112 177.424 100.27 171.319 99.9872 165.24C99.6051 156.868 92.379 150.099 83.9817 149.983C78.4998 149.908 73.0096 149.966 67.5277 149.966C57.3281 149.966 50.1767 142.798 50.1767 132.599C50.1767 127.541 50.1767 122.483 50.1767 117.425C50.1767 107.866 56.1653 100.848 65.6672 100.192C72.3867 99.7265 79.2058 99.768 85.917 100.341C93.9405 101.03 99.9374 108.381 99.9125 116.462C99.8959 122.068 99.8875 127.674 99.9125 133.28C99.954 142.657 107.271 149.958 116.624 149.966C121.923 149.966 127.231 149.966 132.53 149.966C142.131 149.966 149.191 143.87 149.823 134.302C150.263 127.699 150.205 121.005 149.681 114.41C149.025 106.113 141.716 99.9424 133.369 99.9258C127.887 99.9175 122.397 99.9341 116.915 99.9258C107.446 99.9009 100.162 92.5838 100.153 83.099C100.153 77.6756 100.145 72.2521 100.153 66.8287C100.17 57.402 107.421 50.1431 116.807 50.1265C119.548 50.1265 122.289 50.1265 125.029 50.1265C127.77 50.1265 130.761 50.1182 133.618 50.1265C142.53 50.168 149.922 57.4851 149.997 66.3968C150.047 71.8784 149.997 77.3683 150.005 82.8498C150.039 92.8745 157.165 99.9673 167.174 99.9923C173.079 100.009 179.018 99.7182 184.89 100.208C193.37 100.914 199.417 107.218 199.857 115.681C200.19 121.935 200.19 128.239 199.824 134.493H199.857Z" fill="#121212"></path>
  <path d="M248.512 134.551C248.512 128.58 249.259 121.869 249.259 115.897C249.035 114.851 249.874 113.929 249.625 112.891C247.797 105.208 241.302 100.009 233.362 99.9424C227.813 99.8926 222.265 99.9424 216.725 99.9341C207.572 99.9258 200.205 92.6337 200.146 83.4894C200.105 78.0659 200.146 72.6425 200.138 67.2107C200.121 57.2442 192.912 50.0268 182.97 50.0019C177.181 49.9853 171.383 50.1431 165.61 49.8358C156.864 49.3707 150.228 42.2529 150.112 33.4658C150.037 27.8596 150.103 22.2534 150.095 16.639C150.087 7.46978 142.819 0.0945602 133.683 0.0281168C127.952 -0.0134103 122.22 -0.0051049 116.498 0.0281168C107.386 0.0779494 100.077 7.4781 100.06 16.6307C100.052 21.9379 100.077 27.2367 100.06 32.5439C100.027 42.8094 93.0335 49.8856 82.7591 50.0019C77.46 50.06 72.1525 50.0019 66.8533 50.0185C57.4511 50.0434 50.1751 57.2608 50.092 66.6626C50.0339 72.7588 50.2997 78.8716 49.901 84.9345C49.3445 93.4891 42.0437 99.9175 33.4637 99.9341C28.0399 99.9341 22.6161 99.9175 17.1924 99.9341C7.36652 99.9673 0.156994 107.185 0.107159 117.043C0.082241 122.35 0.082241 127.649 0.107159 132.956C0.156994 142.823 7.37484 150.024 17.209 150.041C22.5082 150.041 27.8156 150.041 33.1148 150.041C42.7164 150.049 50.009 157.275 50.0755 166.893C50.117 172.133 50.0755 177.374 50.0755 182.615C50.0755 192.814 57.177 199.99 67.4016 200.073C72.7007 200.122 78.0082 200.073 83.3073 200.081C92.4936 200.081 99.7115 206.958 99.9939 216.185C100.168 221.791 100.052 227.398 100.052 233.004C100.06 242.646 107.286 249.93 116.88 249.938C122.428 249.938 127.976 249.947 133.516 249.938C142.761 249.914 150.078 242.572 150.095 233.319C150.095 227.954 150.087 222.589 150.095 217.223C150.12 207.215 157.28 200.073 167.272 200.073C172.33 200.073 177.388 200.081 182.447 200.073C192.987 200.039 200.13 192.888 200.138 182.382C200.138 177.2 200.13 172.017 200.138 166.843C200.163 157.35 207.447 150.057 216.924 150.041C222.29 150.032 227.656 150.041 233.013 150.041C242.116 150.032 249.035 143.795 249.998 134.742C250.023 134.468 248.412 134.825 248.512 134.559V134.551ZM199.856 134.493C199.324 143.479 192.115 149.916 183.086 149.966C177.662 149.991 172.239 149.966 166.815 149.966C157.404 149.991 150.153 157.142 150.037 166.585C149.97 171.826 150.02 177.067 150.02 182.307C150.02 192.432 143.55 199.45 133.442 199.882C127.486 200.131 121.498 200.064 115.534 199.782C106.938 199.375 100.235 192.116 100.16 183.512C100.11 177.424 100.268 171.319 99.9856 165.24C99.6035 156.868 92.3774 150.099 83.9801 149.983C78.4982 149.908 73.008 149.966 67.5261 149.966C57.3265 149.966 50.1751 142.798 50.1751 132.599C50.1751 127.541 50.1751 122.483 50.1751 117.425C50.1751 107.866 56.1637 100.848 65.6656 100.192C72.3851 99.7265 79.2042 99.768 85.9154 100.341C93.9389 101.03 99.9358 108.381 99.9108 116.462C99.8942 122.068 99.8859 127.674 99.9108 133.28C99.9524 142.657 107.27 149.958 116.622 149.966C121.921 149.966 127.229 149.966 132.528 149.966C142.13 149.966 149.19 143.87 149.821 134.302C150.261 127.699 150.203 121.005 149.68 114.41C149.024 106.113 141.714 99.9424 133.367 99.9258C127.885 99.9175 122.395 99.9341 116.913 99.9258C107.444 99.9009 100.16 92.5838 100.152 83.099C100.152 77.6756 100.143 72.2521 100.152 66.8287C100.168 57.402 107.419 50.1431 116.805 50.1265C119.546 50.1265 122.287 50.1265 125.028 50.1265C127.769 50.1265 130.759 50.1182 133.616 50.1265C142.528 50.168 149.921 57.4851 149.995 66.3968C150.045 71.8784 149.995 77.3683 150.004 82.8498C150.037 92.8745 157.163 99.9673 167.172 99.9923C173.077 100.009 179.016 99.7182 184.888 100.208C193.369 100.914 199.415 107.218 199.856 115.681C200.188 121.935 200.188 128.239 199.822 134.493H199.856Z" fill="#121212"></path>
  <title>Title</title>
</svg>
